<svg xmlns="http://www.w3.org/2000/svg" viewBox="0 0 24 24"><path fill="currentColor" d="M17.065 8.502a.75.75 0 0 1 1.058-.063l3.375 3a.75.75 0 0 1 0 1.121l-3.375 3a.75.75 0 1 1-.996-1.12l1.9-1.69H15a.75.75 0 0 1 0-1.5h4.027l-1.9-1.69a.75.75 0 0 1-.062-1.058M8.502 6.936a.75.75 0 0 1-.063-1.059l3-3.375a.75.75 0 0 1 1.121 0l3 3.375a.75.75 0 1 1-1.12.996l-1.69-1.9V9a.75.75 0 0 1-1.5 0V4.973l-1.69 1.9a.75.75 0 0 1-1.058.063M6.936 8.502a.75.75 0 0 0-1.059-.063l-3.375 3a.75.75 0 0 0 0 1.121l3.375 3a.75.75 0 1 0 .996-1.12l-1.9-1.69H9a.75.75 0 0 0 0-1.5H4.973l1.9-1.69a.75.75 0 0 0 .063-1.058m1.566 8.563a.75.75 0 0 0-.063 1.058l3 3.375a.75.75 0 0 0 1.121 0l3-3.375a.75.75 0 1 0-1.12-.996l-1.69 1.9V15a.75.75 0 0 0-1.5 0v4.027l-1.69-1.9a.75.75 0 0 0-1.058-.062"/></svg>
